<?xml version="1.0" encoding="UTF-8" standalone="no"?>
<!-- Created with Inkscape (http://www.inkscape.org/) -->

<svg
   width="793.70087"
   height="1122.5197"
   viewBox="0 0 210.00002 296.99999"
   version="1.1"
   id="svg1"
   xml:space="preserve"
   inkscape:version="1.3.2 (091e20e, 2023-11-25, custom)"
   sodipodi:docname="ENPEN_neu.svg"
   xmlns:inkscape="http://www.inkscape.org/namespaces/inkscape"
   xmlns:sodipodi="http://sodipodi.sourceforge.net/DTD/sodipodi-0.dtd"
   xmlns="http://www.w3.org/2000/svg"
   xmlns:svg="http://www.w3.org/2000/svg"><sodipodi:namedview
     id="namedview1"
     pagecolor="#ffffff"
     bordercolor="#000000"
     borderopacity="0.25"
     inkscape:showpageshadow="2"
     inkscape:pageopacity="0.0"
     inkscape:pagecheckerboard="0"
     inkscape:deskcolor="#d1d1d1"
     inkscape:document-units="mm"
     inkscape:zoom="23.644984"
     inkscape:cx="24.487223"
     inkscape:cy="19.369859"
     inkscape:window-width="1718"
     inkscape:window-height="1360"
     inkscape:window-x="1713"
     inkscape:window-y="0"
     inkscape:window-maximized="0"
     inkscape:current-layer="g28" /><defs
     id="defs1"><linearGradient
       id="swatch27"
       inkscape:swatch="solid"><stop
         style="stop-color:#2f5681;stop-opacity:0.01346154;"
         offset="0"
         id="stop27" /></linearGradient><linearGradient
       id="swatch26"
       inkscape:swatch="solid"><stop
         style="stop-color:#2f5681;stop-opacity:0.08269228;"
         offset="0"
         id="stop26" /></linearGradient><inkscape:path-effect
       effect="bspline"
       id="path-effect26"
       is_visible="true"
       lpeversion="1.3"
       weight="33.333333"
       steps="2"
       helper_size="0"
       apply_no_weight="true"
       apply_with_weight="true"
       only_selected="false"
       uniform="false" /><inkscape:path-effect
       effect="bspline"
       id="path-effect22"
       is_visible="true"
       lpeversion="1.3"
       weight="33.333333"
       steps="2"
       helper_size="0"
       apply_no_weight="true"
       apply_with_weight="true"
       only_selected="false"
       uniform="false" /><inkscape:path-effect
       effect="bspline"
       id="path-effect22-9"
       is_visible="true"
       lpeversion="1.3"
       weight="33.333333"
       steps="2"
       helper_size="0"
       apply_no_weight="true"
       apply_with_weight="true"
       only_selected="false"
       uniform="false" /></defs><g
     inkscape:label="Layer 1"
     inkscape:groupmode="layer"
     id="layer1"><g
       id="g28"
       transform="translate(-1.519332,-1.8288784)"><g
         style="fill:#2f5681;fill-opacity:1;stroke:#305581;stroke-opacity:1"
         id="g2"
         transform="matrix(0.02581216,0,0,0.02545841,3.0137679,2.8867841)"><g
           id="g5"
           style="fill:#2f5681;fill-opacity:1;stroke:#305581;stroke-width:1.01425;stroke-dasharray:none;stroke-opacity:1"><path
             d="m 128.154,116.506 -1.596,-3.07 -4.494,4.347 2.186,2.75 z m -13.408,101.246 -0.515,-4.003 -5.01,2.185 1.203,5.919 2.407,1.448 z m -82.804,-81.601 6.606,-2.505 4.813,0.737 2.947,-5.28 3.72157,-8.447 -1.23188,-5.45874 -9.19369,0.86674 4.96,-4.7076 -4.076,-0.4254 -3.143,6.115 -4.09398,0.28267 -0.50845,4.30933 1.44947,6.11927 -5.71204,1.32173 0.32508,1.02853 -0.15502,4.715 z m 95.647,-23.844 3.512,6.753 4.494,-1.547 1.056,-4.715 4.714,-0.418 0.55421,-5.61728 0.35437,-13.04572 5.82042,-3.683 -2.85125,-4.981749 -3.22224,-4.343524 -1.38863,-7.775368 1.31746,-6.533009 4.74466,-7.06135 2.77835,-6.549825 0.29129,-6.552077 2.50677,-1.493282 4.63016,-0.605096 2.89674,1.922995 -0.0925,0.836608 -0.835,0.632839 -1.94554,3.691082 -8.18307,12.649337 3.10746,10.371203 2.16976,8.885958 15.88373,0.09655 11.79334,-12.724732 1.72335,-14.671762 -5.67347,-6.715668 c -16.12,-23.357657 -7.05219,-18.737648 -13.3961,-27.227405 l 0.23374,-7.048 2.82195,-3.667632 3.98308,-0.750227 -6.30953,-0.7280312 -2.93049,-4.3352387 -4.91892,-1.8111844 -4.93905,-0.2948038 -3.55713,2.7810364 -5.33684,4.3855807 -3.32476,3.062622 -2.39816,2.60877 -8.80346,5.77392 -5.22368,15.797716 -0.64078,4.50281 -1.2483,8.338365 -3.86846,4.318567 -5.81446,6.997784 -11.66005,11.451202 c -3.136594,-0.554506 -2.506862,5.328635 -2.227604,18.093863 l 7.341674,10.455136 4.83245,-2.269325 4.66745,-5.672512 7.03606,3.229852 7.072,13.801005 z m 13.12751,131.79502 -3.77052,0.0965 -7.13511,-0.36121 -1.11853,3.82199 8.2663,1.47395 6.97928,4.43787 0.0829,-5.1367 0.94275,-3.58332 c -2.05117,-2.05157 -1.04325,0.19989 -4.24708,-0.7491 z M 106.544,228.041 l 1.94,7.71 -0.835,3.659 6.974,0.786 1.621,-10.436 -3.364,-5.624 z m 103.92405,-43.02159 c 1.21984,-0.61052 1.4393,-2.34094 2.15895,-3.51141 l 0.25384,-10.16235 10.38205,-0.52946 4.2939,7.06088 4.86959,2.32601 8.18696,-7.38392 -1.77169,-3.94419 -5.61384,0.38835 3.24892,-7.16756 5.19446,-2.45206 -0.55616,-25.57982 -6.3046,-2.1943 -5.63184,3.92192 -4.06599,-4.09757 -4.97213,0.29096 -3.58922,-7.76182 -8.09998,4.01414 -4.48576,-3.241 5.6449,-5.90402 -8.66859,-4.65619 -2.44531,-6.95599 -14.22005,-4.6584 -5.00208,-20.798421 -17.51979,7.746614 -1.92956,1.491498 c -11.31837,6.823805 7.59778,2.873411 9.66263,3.760699 l 1.01124,4.592 -1.03247,3.33507 -4.30925,1.59885 -5.42396,-4.581413 -2.52383,6.382483 1.75462,10.02316 2.98696,2.92983 7.75205,0.87887 -2.26465,3.41428 -12.56839,0.64787 -2.112,-3.143 -7.244,2.849 -1.694,2.136 -8.177,3.192 -7.612,-3.61 -5.648,3.512 -7.539,-5.844 0.663,-4.568 2.75,-3.61 0.074,-7.367 -3.978,-0.688 -4.813,3.241 1.989,12.327 0.712,7.907 -7.465,4.125 -5.304,-1.449 -5.697,2.898 -4.224,9.896 1.105,1.744 -0.172,-0.025 -4.027,-0.393 -4.027,1.743 -4.568,1.13 -2.726,6.434 -4.666,1.13 -2.652,2.996 -4.445,-1.793 -2.578,4.715 -5.771,0.81 -1.498,-2.996 -7.416,0.368 -1.375,1.915 3.34,4.101 8.497,7.858 0.295,4.199 3.241,2.357 -3.831,16.305 -3.168,4.297 -1.915,0.417 -26.84,-7.711 -3.07,-2.259 -9.086,4.125 2.357,5.451 -1.326,2.235 3.553606,7.244 -3.179538,7.25919 -1.480395,6.42843 0.09635,5.36838 -0.765621,5.64303 3.516545,1.24441 c 11.569225,-1.65685 4.259513,3.31508 11.377042,5.82323 0.960866,3.27447 5.746811,1.26364 7.242535,1.72794 l 5.808392,0.13392 7.00408,1.88047 5.353,-1.94 2.726,-4.322 4.788,-2.357 -2.382,-6.336 9.061,-10.387 6.262,-1.031 7.146,-4.494 0.025,-3.512 0.098,-5.083 4.789,-2.775 9.061,3.266 5.722,0.196 4.666004,-4.248 3.634,-1.105 3.07,-3.438 7.391,3.094 3.462,9.061 13.285,11.517 3.831,-0.368 2.308,3.02 3.831,0.958 1.13,3.217 2.00424,1.4482 0.0117,5.13974 -0.24342,2.62471 c 2.2952,2.06992 -10.26113,2.33052 4.20342,3.41259 2.86555,-5.53924 -1.31346,-5.0974 2.54252,-6.36142 l -0.43217,-2.9226 -0.88862,-7.05156 4.47249,-0.0302 3.38551,2.26026 c -3.1279,-2.64156 3.44392,-3.54761 -9.3837,-7.92467 l -1.44452,-2.14562 -3.90948,-1.24238 -6.164,-4.617 -2.873,-6.851 -6.974,-5.083 0.688,-5.402 -1.498,-3.634 7.49,-1.277 -0.589,0.81 7.244,3.536 1.572,5.599 4.543,3.536 9.17298,8.02009 4.15237,1.20473 1.31994,5.05374 0.57963,5.87317 3.95822,3.1261 3.96916,2.11616 0.8877,3.83921 -0.70561,5.07197 3.06538,1.48281 2.70932,3.50329 3.95984,4.75131 5.79665,0.14345 2.51859,-3.50998 -0.36893,-6.13343 3.806,-1.45861 1.93176,-1.16301 -9.28187,-6.06722 -1.11839,-6.45496 7.42227,-1.45102 -0.83942,-6.26777 10.15341,0.74197 6.507,0.417 -0.491,-7.195 2.78304,-3.38141 -3.46095,-4.7074 -1.15307,-6.57837 2.56553,-7.28358 z"
             id="path3"
             inkscape:label="Europe"
             inkscape:highlight-color="#33547f"
             style="display:inline;fill:#2f5681;fill-opacity:1;stroke:#305581;stroke-width:1.01425;stroke-dasharray:none;stroke-opacity:1"
             sodipodi:nodetypes="cccccccccccccccccccccccccccccccccccccccccccccccccccccccccccccccccccccccccccccccccccccccccccccccccccccccccccccccccccccccccccccccccccccccccccccccccccccccccccccccccccccccccccccccccccccccccccccccccccccccccccccccccccccccccccccccccccccccccccccccccccccccccccccccccccccc"
             transform="translate(1.6949376e-6)" /><path
             style="fill:#2f5681;fill-opacity:1;stroke:#305581;stroke-width:1.01425;stroke-linecap:square;stroke-dasharray:none;stroke-opacity:1"
             d="m 69.434868,89.105412 -10.187486,5.713943 -3.468079,7.032535 -1.734039,6.59301 3.034561,5.71393 v 5.27441 l 2.384282,2.96686 1.950791,2.74702 -0.866974,6.15348 -4.660238,0.6593 -3.576461,5.49417 -2.601054,7.47207 1.300532,5.71394 c 0,0 0.866973,2.6372 2.601054,1.75813 1.734039,-0.87912 14.305831,-2.19767 14.305831,-2.19767 l 7.152912,-0.65929 2.059182,-3.2965 2.926191,-4.83488 1.300522,-2.63721 c 0,0 1.734039,-3.9558 0,-4.39533 -1.734039,-0.43951 -4.76861,-0.43951 -4.76861,-0.43951 l -3.034561,-5.71393 -2.275951,-4.28545 -0.325189,-6.92267 -1.300528,-4.6151 -2.601054,-6.593 3.901586,-3.07674 -2.167547,-4.834869 z"
             id="path6"
             sodipodi:nodetypes="cccccccccccccscccccsccccccccc" /><path
             style="fill:#2f5681;fill-opacity:1;stroke:#305581;stroke-width:1.01425;stroke-linecap:square;stroke-dasharray:none;stroke-opacity:1"
             d="m 25.867108,44.272979 5.635635,2.637196 1.73404,5.274412 8.236689,2.197665 2.601053,-4.39534 7.369675,-0.43951 3.901586,-2.637206 -3.468079,-3.955799 v -7.032536 l -3.468078,-3.076737 c 0,0 -2.601064,-0.879125 -4.335104,0 -1.734039,0.87902 -4.335093,1.758134 -4.335093,1.758134 h -4.335103 l -2.167546,-3.076738 0.433486,-3.516268 -2.601064,-1.758134 -3.034571,1.318604 -3.901586,2.197664 5.202118,3.516268 -5.202118,1.318604 3.034572,4.39534 h 2.167546 z"
             id="path7" /><path
             style="fill:#2f5681;fill-opacity:1;stroke:#305581;stroke-width:1.01425;stroke-linecap:square;stroke-dasharray:none;stroke-opacity:1"
             d="M 54.045264,93.061211 Z"
             id="path8" /><path
             style="fill:#2f5681;fill-opacity:1;stroke:#305581;stroke-width:1.01425;stroke-linecap:square;stroke-dasharray:none;stroke-opacity:1"
             d="M 60.981421,65.370597 Z"
             id="path11" /><path
             style="fill:#2f5681;fill-opacity:1;stroke:#305581;stroke-width:1.01425;stroke-linecap:square;stroke-dasharray:none;stroke-opacity:1"
             d="M 75.287253,231.0748 Z"
             id="path13" /><path
             style="fill:#2f5681;fill-opacity:1;stroke:#305581;stroke-width:1.01425;stroke-linecap:square;stroke-dasharray:none;stroke-opacity:1"
             d="m 76.226545,81.72491 c -0.144475,0.09156 -0.4335,0.274741 -0.595931,0.402699 -0.162431,0.127959 -0.198704,0.201548 -0.180696,0.348104 0.01801,0.146555 0.0903,0.366417 0.16232,0.4945 0.07202,0.128082 0.144592,0.164857 0.198754,0.219594 0.05416,0.05474 0.09043,0.128326 0.216921,0.256635 0.126487,0.128309 0.34319,0.311416 0.469529,0.439395 0.12634,0.12798 0.162613,0.201569 0.252952,0.256604 0.09034,0.05503 0.234714,0.09162 0.3793,0.03668 0.144586,-0.05494 0.289116,-0.20148 0.36133,-0.311072 0.07221,-0.109592 0.07221,-0.18338 0.126271,-0.25656 0.05406,-0.07318 0.162726,-0.146643 0.216905,-0.219644 0.05418,-0.073 0.05418,-0.14679 0.07223,-0.329896 0.01805,-0.183107 0.05417,-0.476152 0.09027,-0.67756 0.0361,-0.201409 0.07221,-0.311284 0.05424,-0.421096 -0.01797,-0.109811 -0.09042,-0.219983 -0.162422,-0.274913 -0.072,-0.05493 -0.144779,-0.05493 -0.397655,-0.05493 -0.252876,0 -0.686363,0 -0.903142,0 -0.216779,0 -0.216707,-1.04e-4 -0.361183,0.09146 z"
             id="path25"
             inkscape:path-effect="#path-effect26"
             inkscape:original-d="m 76.371021,81.633345 c -0.288957,0.18312 -0.578017,0.366241 -0.866974,0.549465 -0.03588,0.07275 -0.07175,0.146538 -0.108346,0.219807 0.07175,0.219807 0.14453,0.43951 0.216795,0.659317 0.07175,0.03638 0.14453,0.07275 0.216794,0.109852 0.03588,0.07275 0.07175,0.146538 0.108346,0.219807 0.216795,0.183121 0.433487,0.366241 0.650282,0.549466 0.03588,0.07275 0.07175,0.146538 0.108346,0.219807 0.14453,0.03637 0.288957,0.07275 0.433487,0.109851 0.144529,-0.146538 0.289059,-0.293076 0.433486,-0.43951 0,-0.07275 0,-0.146538 0,-0.219807 0.108346,-0.07275 0.216795,-0.146538 0.325141,-0.219807 0,-0.07275 0,-0.146538 0,-0.219807 0.03588,-0.292972 0.07175,-0.586048 0.108346,-0.87902 0.03588,-0.109852 0.07175,-0.219807 0.108346,-0.329659 -0.07175,-0.109851 -0.14453,-0.219807 -0.216794,-0.329658 -0.07175,0 -0.14453,0 -0.216795,0 -0.433487,0 -0.866974,0 -1.300532,0 z"
             transform="translate(1.6949376e-6)" /><path
             style="fill:#2f5681;fill-opacity:1;stroke:#305581;stroke-width:1.01425;stroke-linecap:square;stroke-dasharray:none;stroke-opacity:1"
             d="m 77.888265,231.51433 -3.468078,-1.75814 5.635628,-3.51627 3.034572,3.9558 -3.034524,3.07674 v 0 z"
             id="path14"
             sodipodi:nodetypes="ccccccc" /><path
             style="fill:#2f5681;fill-opacity:1;stroke:#305581;stroke-width:1.01425;stroke-linecap:square;stroke-dasharray:none;stroke-opacity:1"
             d="m 201.13212,217.51173 1.17356,7.40959 3.46808,3.51627 0.86707,3.9558 3.03457,7.47208 5.20212,1.3186 2.60106,-5.2744 3.03457,-6.59301 3.46808,-1.75814 3.90159,-5.71393 1.30053,-4.39534 2.60106,-4.83488 3.03457,-3.07673 3.03457,-4.39533 0.86697,-4.83487 -1.73404,-6.15348 -5.20213,1.75814 -2.16754,4.39534 -8.6702,6.15345 -9.1826,1.21196"
             id="path15"
             sodipodi:nodetypes="cccccccccccccccccccc" /></g></g><circle
         style="fill:none;fill-opacity:0.0134615;fill-rule:evenodd;stroke:#3189b9;stroke-width:0.0297729;stroke-linecap:square;stroke-dasharray:none;stroke-opacity:1"
         id="path21"
         cx="6.0118203"
         cy="6.3213668"
         inkscape:label="path21"
         r="4.3351135" /><path
         style="fill:none;fill-opacity:0.0134615;fill-rule:evenodd;stroke:#3189b9;stroke-width:0.03;stroke-linecap:square;stroke-dasharray:none;stroke-opacity:1"
         d="M 2.3386743,4.2936495 6.1096466,2.0780635 9.690392,4.327219 9.6568224,8.5122151 6.0984568,10.548764 2.3274844,8.5122151 Z"
         id="path16" /><path
         style="fill:none;fill-opacity:0.0134615;fill-rule:evenodd;stroke:#3189b9;stroke-width:0.03;stroke-linecap:square;stroke-dasharray:none;stroke-opacity:1"
         d="M 2.3610539,4.3384091 3.8716809,7.5834593 6.0984568,10.559953 8.2692837,7.5387 9.6792022,4.3160293 6.0760771,3.8684361 Z"
         id="path17" /><path
         style="fill:none;fill-opacity:0.0134615;fill-rule:evenodd;stroke:#3189b9;stroke-width:0.03;stroke-linecap:square;stroke-dasharray:none;stroke-opacity:1"
         d="M 2.3274844,8.5234051 3.8493012,7.5498898 8.2580939,7.5722696 6.0984568,3.8572463 3.8493012,7.5946491"
         id="path18" /><path
         style="fill:none;fill-opacity:0.0134615;fill-rule:evenodd;stroke:#3189b9;stroke-width:0.03;stroke-linecap:square;stroke-dasharray:none;stroke-opacity:1"
         d="m 6.0872671,2.0668736 0.011189,1.8127525"
         id="path19" /><path
         style="fill:#2f5681;fill-opacity:1;stroke:#2f5681;stroke-width:0.026;stroke-linecap:square;stroke-dasharray:none;stroke-opacity:1"
         d="m 4.5850325,5.0857774 c -0.00653,0.00653 -0.013054,0.013055 -0.015855,0.016318 -0.0028,0.00326 -0.00188,0.00326 -4.703e-4,0.00466 0.00141,0.0014 0.00328,0.0042 0.00607,0.00653 0.00279,0.00233 0.00653,0.0042 0.00886,0.00606 0.00233,0.00186 0.00326,0.00373 0.00513,0.00467 0.00187,9.38e-4 0.00467,9.38e-4 0.010724,0.0014 0.00605,4.664e-4 0.015384,0.0014 0.02051,9.416e-4 0.00513,-4.584e-4 0.00606,-0.00233 0.00699,-0.00327 9.32e-4,-9.38e-4 0.00186,-9.38e-4 0.00326,-0.0042 0.00141,-0.00326 0.00328,-0.00979 0.00421,-0.01632 9.334e-4,-0.00653 9.334e-4,-0.013053 -0.00699,-0.018648 -0.00793,-0.0056 -0.023777,-0.010258 -0.032168,-0.012589 -0.00839,-0.00233 -0.00931,-0.00233 -0.00979,4.684e-4 -4.75e-4,0.0028 -4.75e-4,0.00839 -0.00187,0.014452 -0.0014,0.00606 -0.0042,0.01259 -0.00699,0.019115"
         id="path22"
         inkscape:path-effect="#path-effect22"
         inkscape:original-d="m 4.5850325,5.0857774 c -0.00653,0.00653 -0.013054,0.013055 -0.019582,0.019582 9.261e-4,0 0.00185,0 0.0028,0 0.00185,0.0028 0.00373,0.0056 0.0056,0.00839 0.00373,0.00185 0.00746,0.00373 0.011189,0.0056 9.261e-4,0.00185 0.00185,0.00373 0.0028,0.0056 0.0028,0 0.0056,0 0.00839,0 0.00932,9.261e-4 0.01865,0.00185 0.027975,0.0028 9.261e-4,-0.00185 0.00185,-0.00373 0.0028,-0.0056 9.26e-4,0 0.00185,0 0.0028,0 0.00185,-0.00653 0.00373,-0.013055 0.0056,-0.019582 0,-0.00653 0,-0.013054 0,-0.019582 -0.015851,-0.00466 -0.031704,-0.00932 -0.047557,-0.013988 -9.26e-4,0 -0.00185,0 -0.0028,0 0,0.0056 0,0.011189 0,0.016785 -0.0028,0.00653 -0.0056,0.013055 -0.00839,0.019582"
         transform="translate(0,-0.52916667)" /><path
         style="fill:#2f5681;fill-opacity:1;stroke:#2f5681;stroke-width:0.026;stroke-linecap:square;stroke-dasharray:none;stroke-opacity:1"
         d="m 4.5850325,5.0857774 c -0.00653,0.00653 -0.013054,0.013055 -0.015855,0.016318 -0.0028,0.00326 -0.00188,0.00326 -4.703e-4,0.00466 0.00141,0.0014 0.00328,0.0042 0.00607,0.00653 0.00279,0.00233 0.00653,0.0042 0.00886,0.00606 0.00233,0.00186 0.00326,0.00373 0.00513,0.00467 0.00187,9.38e-4 0.00467,9.38e-4 0.010724,0.0014 0.00605,4.664e-4 0.015384,0.0014 0.02051,9.416e-4 0.00513,-4.584e-4 0.00606,-0.00233 0.00699,-0.00327 9.32e-4,-9.38e-4 0.00186,-9.38e-4 0.00326,-0.0042 0.00141,-0.00326 0.00328,-0.00979 0.00421,-0.01632 9.334e-4,-0.00653 9.334e-4,-0.013053 -0.00699,-0.018648 -0.00793,-0.0056 -0.023777,-0.010258 -0.032168,-0.012589 -0.00839,-0.00233 -0.00931,-0.00233 -0.00979,4.684e-4 -4.75e-4,0.0028 -4.75e-4,0.00839 -0.00187,0.014452 -0.0014,0.00606 -0.0042,0.01259 -0.00699,0.019115"
         id="path22-1"
         inkscape:path-effect="#path-effect22-9"
         inkscape:original-d="m 4.5850325,5.0857774 c -0.00653,0.00653 -0.013054,0.013055 -0.019582,0.019582 9.261e-4,0 0.00185,0 0.0028,0 0.00185,0.0028 0.00373,0.0056 0.0056,0.00839 0.00373,0.00185 0.00746,0.00373 0.011189,0.0056 9.261e-4,0.00185 0.00185,0.00373 0.0028,0.0056 0.0028,0 0.0056,0 0.00839,0 0.00932,9.261e-4 0.01865,0.00185 0.027975,0.0028 9.261e-4,-0.00185 0.00185,-0.00373 0.0028,-0.0056 9.26e-4,0 0.00185,0 0.0028,0 0.00185,-0.00653 0.00373,-0.013055 0.0056,-0.019582 0,-0.00653 0,-0.013054 0,-0.019582 -0.015851,-0.00466 -0.031704,-0.00932 -0.047557,-0.013988 -9.26e-4,0 -0.00185,0 -0.0028,0 0,0.0056 0,0.011189 0,0.016785 -0.0028,0.00653 -0.0056,0.013055 -0.00839,0.019582"
         transform="matrix(0,-0.77629498,1.4085491,0,-2.6198416,8.746239)" /><path
         style="fill:none;fill-opacity:0.0134615;fill-rule:evenodd;stroke:#3189b9;stroke-width:0.03;stroke-linecap:square;stroke-dasharray:none;stroke-opacity:1"
         d="M 8.2469039,7.5498898 9.6568224,8.5234051"
         id="path20" /><path
         style="fill:#2f5681;fill-opacity:0.0884146;fill-rule:evenodd;stroke:#2f5681;stroke-width:0.00479534;stroke-linecap:square;stroke-dasharray:none;stroke-opacity:1"
         d="m 3.194201,9.3828953 c 6.241e-4,-0.019967 3.1455828,-1.8825811 6.988797,-4.1391415 l 6.987663,-4.1028374 0.03413,3.2299137 c 0.01877,1.7764525 0.02718,3.2368595 0.01869,3.2453493 -0.0085,0.00849 -1.401639,0.1909686 -3.095886,0.4055088 L 11.047144,8.4117621 10.905892,8.2447926 C 10.771485,8.0859132 10.76461,8.0613516 10.764011,7.7378678 L 10.763382,7.3979124 10.57692,7.2420497 C 10.318638,7.0261528 10.134368,7.0027288 9.8003174,7.1433286 9.2703019,7.3664089 8.9917789,7.2662971 8.9879904,6.8513474 8.9862192,6.657332 8.9739401,6.6320353 8.8391538,6.5447285 8.7583552,6.4923918 8.6806897,6.4495708 8.6665637,6.4495708 c -0.037632,0 -0.7092985,0.3398053 -0.7517197,0.3803052 -0.019856,0.018957 0.062507,0.1008739 0.1830287,0.1820382 0.2328908,0.1568379 0.2329631,0.171359 0.0011,0.2200636 -0.081413,0.017101 -0.161079,0.038741 -0.1770359,0.048089 -0.044404,0.026012 0.3123428,0.5228563 0.3754243,0.5228563 0.078807,0 0.070956,0.025538 -0.071512,0.2326075 -0.069782,0.1014249 -0.1268768,0.2032761 -0.1268768,0.2263355 0,0.02306 0.1332206,0.1033323 0.2960459,0.1783833 0.5429802,0.2502755 0.6132641,0.2322755 -2.3578319,0.6038499 -1.459591,0.182541 -2.6966228,0.3416141 -2.7489595,0.3534961 -0.052337,0.011882 -0.094647,0.00527 -0.094023,-0.0147 z"
         id="path28"
         transform="matrix(0.26458333,0,0,0.26458333,1.519332,1.8288784)" /><path
         style="fill:#2f5681;fill-opacity:0.0884146;fill-rule:evenodd;stroke:#2f5681;stroke-width:0.00479534;stroke-linecap:square;stroke-dasharray:none;stroke-opacity:1"
         d="M 26.591138,8.798705 C 24.515047,8.5377693 22.809202,8.3164036 22.800371,8.3067808 22.791541,8.2971576 22.696459,8.15276 22.589077,7.9858963 22.285737,7.5145274 22.064377,7.0242399 22.032632,6.7534353 22.016014,6.6116784 21.954159,6.4221511 21.88191,6.2916156 21.778918,6.1055372 21.759372,6.0221804 21.759372,5.7690481 c 0,-0.2718188 0.01255,-0.3170182 0.128753,-0.4637377 0.09651,-0.1218517 0.173214,-0.1713569 0.306285,-0.1976727 0.11262,-0.022272 0.182455,-0.060676 0.190998,-0.1050354 0.01109,-0.05758 -0.03898,-0.075095 -0.283545,-0.099194 L 21.804851,4.8741417 21.665808,4.6685194 C 21.495307,4.4163771 21.210954,4.2877414 20.763375,4.2602772 L 20.465202,4.2419807 20.002115,4.6118059 C 19.747417,4.8152096 19.396291,5.1168443 19.221836,5.2821051 19.04738,5.4473659 18.738146,5.6871673 18.53465,5.8149965 l -0.369994,0.2324176 -0.267652,0.803743 c -0.247997,0.7447211 -0.275508,0.8046831 -0.37464,0.8165414 -0.09794,0.011716 -0.109289,-0.00398 -0.134188,-0.1856448 -0.01496,-0.1091437 -0.0272,-1.5966397 -0.0272,-3.3055468 0,-2.4684786 0.01087,-3.1028681 0.05287,-3.0864964 0.06678,0.026031 12.937753,8.1061276 12.992185,8.1561898 0.02538,0.023339 0.02538,0.035107 0,0.031943 -0.0221,-0.00276 -1.738798,-0.2185026 -3.814888,-0.4794383 z"
         id="path29"
         transform="matrix(0.26458333,0,0,0.26458333,1.519332,1.8288784)" /><path
         style="fill:#2f5681;fill-opacity:0.0884146;fill-rule:evenodd;stroke:#2f5681;stroke-width:0.00479534;stroke-linecap:square;stroke-dasharray:none;stroke-opacity:1"
         d="M 29.773757,24.524285 C 29.285281,24.1858 28.889368,23.886738 28.89395,23.859702 c 0.0046,-0.02703 0.03156,-0.173653 0.05995,-0.325819 0.04491,-0.240709 0.04182,-0.312858 -0.02378,-0.55519 -0.110142,-0.406899 -0.0942,-0.3964 -0.435182,-0.286579 -0.2877,0.09266 -0.299042,0.101689 -0.408737,0.325353 -0.07349,0.149837 -0.132765,0.222396 -0.170013,0.208102 -0.03145,-0.01207 -0.437645,-0.284779 -0.902649,-0.606021 -0.90652,-0.626257 -0.878228,-0.591525 -0.698151,-0.857085 0.121053,-0.178516 0.127816,-0.210945 0.161614,-0.774925 l 0.02725,-0.454642 0.344842,-5.77e-4 c 0.189663,-3.18e-4 0.385243,-0.01142 0.434623,-0.02467 0.07598,-0.02039 0.121497,0.02783 0.296046,0.313589 0.188175,0.308069 0.229812,0.349325 0.474773,0.470409 l 0.268509,0.132726 0.17556,-0.146258 c 0.09656,-0.08044 0.295923,-0.257233 0.443035,-0.392871 l 0.267474,-0.246613 -0.0983,-0.219547 -0.09831,-0.219546 -0.239091,-0.01306 -0.23909,-0.01306 0.12133,-0.266864 c 0.114689,-0.252256 0.135301,-0.272893 0.37654,-0.376982 l 0.25521,-0.110118 -0.0057,-0.616886 c -0.0032,-0.339288 -0.01742,-0.919716 -0.03172,-1.28984 l -0.02599,-0.672953 -0.344864,-0.115757 -0.344864,-0.115757 -0.226082,0.163535 c -0.124345,0.08994 -0.24631,0.164149 -0.271034,0.164899 -0.0894,0.0027 -0.284318,-0.24432 -0.255547,-0.323876 0.0566,-0.156514 3.007544,-6.8982002 3.015996,-6.8903113 0.01151,0.010744 -0.111398,14.9577303 -0.125137,15.2178433 l -0.01053,0.199367 z"
         id="path30"
         transform="matrix(0.26458333,0,0,0.26458333,1.519332,1.8288784)" /><path
         style="fill:#2f5681;fill-opacity:0.0884146;fill-rule:evenodd;stroke:#2f5681;stroke-width:0.00479534;stroke-linecap:square;stroke-dasharray:none;stroke-opacity:1"
         d="m 17.703969,32.601083 c 0.0394,-0.09979 4.622885,-6.443315 4.655582,-6.443315 0.08214,0 0.126188,0.244022 0.10092,0.559064 l -0.02618,0.326456 0.162378,0.08284 c 0.100039,0.05104 0.288667,0.238256 0.491336,0.48767 l 0.328959,0.40483 0.32367,-8.1e-5 0.32367,-8.2e-5 0.139338,-0.204447 c 0.132778,-0.19482 0.138027,-0.217242 0.111497,-0.476196 l -0.02784,-0.271749 0.205696,-0.07479 c 0.113132,-0.04114 0.252219,-0.1104 0.30908,-0.153921 l 0.103385,-0.07913 -0.489249,-0.317649 -0.48925,-0.317649 -0.02997,-0.239896 c -0.01649,-0.131943 -0.02199,-0.247884 -0.01223,-0.257645 0.0098,-0.0098 0.130279,-0.03777 0.267815,-0.06224 0.437909,-0.0779 0.412,-0.0518 0.379441,-0.382229 l -0.0287,-0.291275 0.330295,0.02625 c 0.181661,0.01444 0.342246,0.03808 0.356854,0.05254 0.01461,0.01446 0.04827,0.176947 0.0748,0.361085 0.04468,0.310076 0.06223,0.349755 0.237766,0.537414 0.10424,0.111441 0.189527,0.243624 0.189527,0.293741 0,0.05012 0.07873,0.288795 0.174966,0.530396 0.173301,0.435094 0.176621,0.439703 0.348911,0.484343 0.09567,0.02479 0.233809,0.0608 0.306975,0.08003 l 0.133031,0.03496 0.281645,-0.587789 c 0.252543,-0.527053 0.298382,-0.596328 0.443616,-0.670421 0.20534,-0.104756 0.534245,-0.558401 0.622118,-0.85806 0.09038,-0.308214 0.287886,-0.645167 0.539535,-0.920475 l 0.213496,-0.233569 0.897352,0.614199 c 0.493544,0.337809 0.897617,0.623715 0.897943,0.635345 3.24e-4,0.01163 -2.778573,1.610278 -6.175329,3.552551 -7.310217,4.179998 -6.69326,3.830609 -6.672843,3.778902 z"
         id="path31"
         transform="matrix(0.26458333,0,0,0.26458333,1.519332,1.8288784)" /><path
         style="fill:#2f5681;fill-opacity:0.0884146;fill-rule:evenodd;stroke:#2f5681;stroke-width:0.00479534;stroke-linecap:square;stroke-dasharray:none;stroke-opacity:1"
         d="M 10.055468,28.95527 C 6.3281984,26.939798 3.2789464,25.28126 3.2793527,25.26963 3.279759,25.258 4.0645925,24.747825 5.0234272,24.135909 l 1.7433357,-1.112574 0.1107206,0.245583 c 0.1045398,0.231874 0.1069725,0.252091 0.04358,0.362169 -0.0647,0.112348 -0.060872,0.129258 0.1053201,0.465215 l 0.1724605,0.348629 -0.1450809,0.338338 c -0.189162,0.441138 -0.3116688,0.964066 -0.298587,1.274536 0.00575,0.136392 -0.00555,0.37426 -0.025108,0.528596 l -0.035557,0.28061 0.2165031,0.07191 c 0.1450932,0.04819 0.2717881,0.06257 0.3841178,0.04359 0.2829081,-0.0478 0.4175362,0.0052 0.4931488,0.194191 0.036434,0.09106 0.1260018,0.213168 0.1990389,0.271356 0.073037,0.05819 0.1618525,0.133099 0.1973678,0.16647 0.120747,0.113456 0.273159,0.138739 0.7178339,0.119079 0.3776801,-0.0167 0.5058899,-0.0038 0.857584,0.08619 l 0.4135155,0.105822 0.280251,-0.09095 c 0.253878,-0.08239 0.294157,-0.111884 0.428043,-0.313432 0.118785,-0.178817 0.196749,-0.244454 0.397229,-0.334425 0.18965,-0.08511 0.243048,-0.128083 0.222783,-0.179292 -0.01466,-0.03704 -0.07031,-0.182372 -0.123666,-0.322952 l -0.09701,-0.255599 0.275402,-0.306442 0.275403,-0.306441 2.531853,3.385523 c 1.392519,1.862038 2.531853,3.394826 2.531853,3.406196 0,0.01137 -0.01427,0.01871 -0.03172,0.01631 -0.01745,-0.0024 -3.081304,-1.653382 -6.808574,-3.668854 z"
         id="path32"
         transform="matrix(0.26458333,0,0,0.26458333,1.519332,1.8288784)" /><path
         style="fill:#2f5681;fill-opacity:0.0884146;fill-rule:evenodd;stroke:#2f5681;stroke-width:0.00479534;stroke-linecap:square;stroke-dasharray:none;stroke-opacity:1"
         d="m 3.1539088,17.624681 c 0.00172,-4.134256 0.015998,-7.598889 0.031719,-7.6991845 0.027903,-0.1780056 0.089053,-0.052406 2.5635296,5.2653875 1.3942199,2.996258 2.6341519,5.659386 2.7554047,5.918061 L 8.725022,21.579264 6.0562829,23.286997 C 4.5884767,24.226251 3.3342709,25.027756 3.2691591,25.06812 L 3.150774,25.14151 Z"
         id="path33"
         transform="matrix(0.26458333,0,0,0.26458333,1.519332,1.8288784)" /><path
         style="fill:#2f5681;fill-opacity:0.0884146;fill-rule:evenodd;stroke:#2f5681;stroke-width:0.00479534;stroke-linecap:square;stroke-dasharray:none;stroke-opacity:1"
         d="M 8.9659608,23.019568 C 8.3547228,22.843237 8.022089,22.725095 7.8990593,22.640636 l -0.1787638,-0.122721 -0.1742457,0.08889 c -0.3733283,0.190458 -0.1816059,0.03324 0.4519042,-0.370579 0.6219797,-0.396467 0.6706303,-0.419739 0.7862418,-0.376101 0.085031,0.0321 0.2706879,0.243305 0.5988551,0.681276 0.5307451,0.70833 0.553646,0.741754 0.5052627,0.737432 -0.018818,-0.0017 -0.4338771,-0.118352 -0.9223528,-0.259269 z"
         id="path34"
         transform="matrix(0.26458333,0,0,0.26458333,1.519332,1.8288784)" /></g></g></svg>
